<svg xmlns="http://www.w3.org/2000/svg" viewBox="0 0 151.67 500.16"><defs><style>.cls-1{fill:#fff;stroke:#f90b0b;stroke-miterlimit:10;}</style></defs><title>path3929</title><g id="Ebene_2" data-name="Ebene 2"><g id="Ebene_1-2" data-name="Ebene 1"><path id="path3929" class="cls-1" d="M73.3.5V54.44H72v2.91H73.3V89.66H72v1.53H73.3v43.22H71.77v2.91H73.3V148H70.59v2.91H72.4l-3.12,7.81H64.8v1.88h3.06v4.78H66.15v1.84h1.72v2.28H66.15v1.84h1.72v2.28H66.15v1.88h1.72v2.25H66.15v1.88h1.72v2.25H66.15v1.88h1.72v2.34a24.88,24.88,0,0,0-16,23.59c0,11.45,7.32,21.11,17.31,24l0,2.25H66.34v3.25h2.72v1H66.34v3.22H69L65.74,472.72h-.06l-3.19,9.69h-40L4.37,479l.5.28-.5-.09,11.28,6.44v5.06L1.87,499.44h.31l-.31.19,4.72-.09,8.84-4.06v3.22H136.24v-3.22l8.88,4.06,4.69.09-.31-.19h.31l-13.75-8.78v-5.06l11.25-6.44-.5.09.5-.28-18.09,3.44H89.15L86,472.72h0L81.62,243.5H84v-3.22H81.55l0-1H84V236H81.46l0-2.12c10.21-2.77,17.75-12.54,17.75-24.16,0-11.21-7-20.71-16.69-23.84v-2.09H84v-1.87H82.49v-2.25H84v-1.87H82.49v-2.25H84v-1.87H82.49v-2.28H84v-1.84H82.49v-2.28H84v-1.84H82.49v-4.78H85.4v-1.87H81.09L78,150.94h2.31V148H77.4V137.31h1.19v-2.91H77.4V91.19h1.34V89.66H77.4V57.34h1.53V54.44H77.4V.5H73.3Z"/></g></g></svg>