<svg id="_ŽÓť_1" data-name="—ŽÓť_1" xmlns="http://www.w3.org/2000/svg" viewBox="0 0 1026.48 924.9"><defs><style>.cls-1{fill:#f7cd1e;}.cls-2{fill:#fcd842;}.cls-3{fill:#e5c025;}.cls-4{fill:#ae6228;}</style></defs><title>banana</title><path class="cls-1" d="M968.37,138.39c-34.34-3.25-67.37,2.73-98.59,21.44,22.79,54.64,36.08,111.34,38.74,170.36C854.2,405.64,918.63,549.77,639.7,726.67,455.46,836.89,373.28,792,231.19,825.39c-36.86,7.45-83.51,28.34-127.23,34.17-10.75,22.8-16.1,48.45-17,76.41,43.12,43.79,85.51,89.47,152.26,104.38,350.46,96.78,710.44-140.6,832.27-395.38,70.75-157.32,52.61-282.14-61.44-371.08C978,236,965.46,190.27,968.37,138.39Z" transform="translate(-86.76 -137.55)"/><path class="cls-2" d="M968.37,138.39c-11.81-.23-22.56,2-32.17,6.85,10.73,53.26,55,96.91,57.66,155.92-4.84,26.52,205.38,259.59-178.38,534C529.8,1031.75,419.33,983.23,269.64,998.36,203.46,996.88,154.75,926.6,88,920L86.91,936c43.12,43.79,85.51,89.47,152.26,104.38,350.46,96.78,710.44-140.6,832.27-395.38,70.75-157.32,52.61-282.14-61.44-371.08C978,236,965.46,190.27,968.37,138.39Z" transform="translate(-86.76 -137.55)"/><path class="cls-3" d="M898.71,150.42s-11.54-2-28.93,9.41c22.79,54.64,36.08,111.34,38.74,170.36C854.2,405.64,918.63,549.77,639.7,726.67,455.46,836.89,373.28,792,231.19,825.39c-36.86,7.45-83.51,28.34-127.23,34.17l-3.86,8.91c43.11,43.79,138.73-22.25,205.48-7.34,307.66,34.64,527.41-197.2,576.53-307,44.68-104.63,66.62-163,58.81-233C908.89,283.26,898.71,150.42,898.71,150.42Z" transform="translate(-86.76 -137.55)"/><path class="cls-4" d="M869.78,159.83c31.66-19.41,64.77-24.06,98.59-21.44C934.78,148,900.86,149,869.78,159.83Z" transform="translate(-86.76 -137.55)"/><path class="cls-4" d="M104,859.56c-12.84,22.91-18.19,48.5-17,76.41l5.33-15.42a161.05,161.05,0,0,0,11.28-48.94Z" transform="translate(-86.76 -137.55)"/></svg>