<svg xmlns="http://www.w3.org/2000/svg" xmlns:xlink="http://www.w3.org/1999/xlink" viewBox="0 0 1000 1000"><defs><style>.cls-1{isolation:isolate;}.cls-2{fill:#f7b703;}.cls-3{fill:url(#linear-gradient);}.cls-4{fill:url(#New_Gradient_Swatch_3);}.cls-5{fill:url(#New_Gradient_Swatch_3-2);}.cls-6,.cls-7{fill:#273326;}.cls-6{opacity:0.6;mix-blend-mode:color-burn;}.cls-8{fill:url(#New_Gradient_Swatch_2);}.cls-9{fill:#efeae1;}.cls-10{fill:url(#New_Gradient_Swatch_3-3);}.cls-11{fill:#ead513;}.cls-12,.cls-15{fill:#fff;}.cls-13{fill:url(#New_Gradient_Swatch_3-4);}.cls-14{fill:#85bbc9;}.cls-15{opacity:0.2;}</style><linearGradient id="linear-gradient" x1="718.45" y1="156.82" x2="710.39" y2="185.46" gradientTransform="translate(-174.45 735.59) rotate(-45)" gradientUnits="userSpaceOnUse"><stop offset="0" stop-color="#d10219"/><stop offset="1" stop-color="#900219"/></linearGradient><linearGradient id="New_Gradient_Swatch_3" x1="814.9" y1="173.82" x2="623.85" y2="169.11" gradientTransform="translate(-174.45 735.59) rotate(-45)" gradientUnits="userSpaceOnUse"><stop offset="0" stop-color="#b20219"/><stop offset="1" stop-color="#900219"/></linearGradient><linearGradient id="New_Gradient_Swatch_3-2" x1="603.29" y1="422.23" x2="841.57" y2="422.23" xlink:href="#New_Gradient_Swatch_3"/><linearGradient id="New_Gradient_Swatch_2" x1="891.08" y1="164.79" x2="891.08" y2="435.22" gradientTransform="translate(-174.45 735.59) rotate(-45)" gradientUnits="userSpaceOnUse"><stop offset="0" stop-color="#f24c25"/><stop offset="1" stop-color="#ba0000"/></linearGradient><linearGradient id="New_Gradient_Swatch_3-3" x1="585.15" y1="293.88" x2="841.59" y2="293.88" xlink:href="#New_Gradient_Swatch_3"/><linearGradient id="New_Gradient_Swatch_3-4" x1="254.36" y1="56.89" x2="335.87" y2="56.89" gradientTransform="translate(533.35 24.06) rotate(45)" xlink:href="#New_Gradient_Swatch_3"/></defs><title>spaceship</title><g class="cls-1"><g id="rockets"><path class="cls-2" d="M438.52,480.3S418.6,459,357.49,531,204.71,730.78,83.5,889.72c196.6-147.58,328.68-229.11,371.9-269s49-66.42,43.94-94.45C474.69,481.42,438.52,480.3,438.52,480.3Z"/><path class="cls-3" d="M545.24,265.13S514.86,253.65,475,275.94s-130.28,99.3-139.74,120.91C383.9,397.53,442.94,410,449,417.41,539.17,329.29,545.24,265.13,545.24,265.13Z"/><path class="cls-4" d="M546.4,266.28s-29.52-10.61-69,12-123,97.89-132.75,119.25c47.6-.35,98.57,12.69,104.37,19.84C539.13,329.25,546.4,266.28,546.4,266.28Z"/><path class="cls-5" d="M713.65,433.53s11.48,30.39-10.8,70.24S602.91,628.7,581.29,638.15c-.67-48.62-12.49-102.31-19.92-108.38C649.5,439.62,713.65,433.53,713.65,433.53Z"/><path class="cls-6" d="M426.51,408.43s76.28-113.78,118.73-143.3c9.13,15.62-93.6,152.1-93.6,152.1A128.79,128.79,0,0,0,426.51,408.43Z"/><path class="cls-6" d="M562.39,530.51s11.93,30.19,14.71,55.36c76.21-45.88,138.43-131.3,137.59-162.1C613.85,469.75,562.39,530.51,562.39,530.51Z"/><path class="cls-7" d="M439.72,448l-12.83,32.18s16.42,9.23,35.79,28.59S499.14,556,499.14,556l40.07-19.36S474.38,447.5,439.72,448Z"/><path class="cls-8" d="M429.3,452.84s68.43,47.72,98.6,96.8c131-40.08,196-129.34,241.3-180.08,73.22-82.1,103.62-220.54,81.07-243.08-22-22-149.12,16.27-239.29,80.27C539.33,257.61,450.91,379.91,429.3,452.84Z"/><path class="cls-6" d="M705.74,440c-10.94-22.28-35.26-65.62-74.16-102.74-39.54-37.73-77-53.84-95.05-59.95-10.77,12.47-21.29,25.6-31.31,39,22.32,6.58,61.61,22,94.72,55.09,39.13,39.13,59.92,75,71.3,100.23C683.77,461.24,695.21,450.56,705.74,440Z"/><path class="cls-9" d="M708,437.74c-10.94-22.28-35.26-65.62-74.16-102.74-39.54-37.73-77-53.84-95.05-59.95-10.77,12.47-21.29,25.6-31.31,39,22.32,6.58,61.61,22,94.72,55.09,39.13,39.13,59.92,75,71.3,100.23C686.05,459,697.5,448.29,708,437.74Z"/><path class="cls-6" d="M533.28,438.12c31.15,31.15,50.7,60.28,63.11,83.58a399.84,399.84,0,0,0,38.69-22.92c-12.37-23.67-35.48-61.75-70.16-94.84-31.9-30.43-62.44-46.78-82.55-55.19-9.11,13.73-17.51,27.44-24.92,40.75C479.59,398.13,508.2,413.05,533.28,438.12Z"/><path class="cls-9" d="M535.88,435.51c31.16,31.15,50.7,60.28,63.12,83.58a400.45,400.45,0,0,0,38.68-22.91c-12.36-23.68-35.47-61.76-70.16-94.84-31.89-30.43-62.43-46.79-82.54-55.2-9.11,13.73-17.51,27.44-24.92,40.75C482.19,395.53,510.81,410.44,535.88,435.51Z"/><path class="cls-6" d="M629.5,352.08s20.22,21.9-57.83,91.09-100.09,75.19-100.09,75.19l-6.65-8.53Z"/><path class="cls-10" d="M445.71,528.23s85.12-101.32,113.6-129.12,60.23-58.21,70.42-49.49-26.23,41.76-52.19,67.72S466.88,516.51,445.71,528.23Z"/><path class="cls-11" d="M462.81,519.67s-25.93-34.51-66.44-4.14S294.9,679.86,294.9,679.86s88.81-32.7,123-53S495.55,567.16,462.81,519.67Z"/><path class="cls-6" d="M745.79,324.53a67.57,67.57,0,1,0-95.56,0A67.57,67.57,0,0,0,745.79,324.53Z"/><path class="cls-9" d="M749.58,320.74a67.57,67.57,0,1,0-95.56,0A67.57,67.57,0,0,0,749.58,320.74Z"/><path class="cls-12" d="M745.79,229a67.57,67.57,0,0,1,1.85,93.62c.65-.61,1.31-1.22,1.94-1.85A67.57,67.57,0,0,0,654,225.18c-.63.64-1.24,1.29-1.84,1.94A67.56,67.56,0,0,1,745.79,229Z"/><path class="cls-13" d="M673,301.78a40.76,40.76,0,1,1,57.64,0A40.81,40.81,0,0,1,673,301.78Z"/><path class="cls-14" d="M676.78,298a35.39,35.39,0,1,1,50.05,0A35.43,35.43,0,0,1,676.78,298Z"/><path class="cls-15" d="M736.59,266.6a35.23,35.23,0,0,0-4.4-11.71c-9.73-3.61-29.93-4.7-31.75,10.07-.91,7.44-17.12,12.2-33.68,12.57a35.22,35.22,0,0,0,4.7,13.58c11.72-3,42.48-6.86,41.53-18.39C711.92,259.77,728.67,263.61,736.59,266.6Z"/></g></g></svg>