<?xml version="1.0" encoding="UTF-8"?>
<svg viewBox="0 0 120 120" xmlns="http://www.w3.org/2000/svg">
 <defs>
  <filter id="d">
   <feGaussianBlur stdDeviation="1.799"/>
  </filter>
  <filter id="f"/>
  <filter id="e" x="-.1276" y="-.2458" width="1.2552" height="1.4916">
   <feGaussianBlur stdDeviation=".346"/>
  </filter>
  <linearGradient id="c" x1="192.08" x2="190.81" y1="1003.7" y2="1004.8" gradientUnits="userSpaceOnUse">
   <stop stop-color="#f00" offset="0"/>
   <stop stop-color="#666" offset="1"/>
  </linearGradient>
  <radialGradient id="b" cx="82.428" cy="983.97" r="30.766" gradientTransform="matrix(.82108 -1.2102 .4637 .3146 -352.04 876.02)" gradientUnits="userSpaceOnUse">
   <stop stop-color="#ccc" offset="0"/>
   <stop stop-color="#fff" stop-opacity=".57" offset="1"/>
  </radialGradient>
  <radialGradient id="a" cx="87.238" cy="1009.2" r="30.891" gradientTransform="matrix(.2523 1.2173 -1.0339 .21429 1164.2 740.96)" gradientUnits="userSpaceOnUse">
   <stop stop-color="#b3b3b3" offset="0"/>
   <stop stop-color="#fff" offset="1"/>
  </radialGradient>
 </defs>
 <g transform="matrix(1.6413 0 0 1.6413 -172.64 -1663.9)">
  <path d="m160.71 1021.3 11.922 48.055c-22.174 10.077-40.996 9.6991-52.442 10.069l-9.3398-52.916c19.119-0.4932 32.05-2.0463 49.86-5.2083z" fill="#b3b3b3" filter="url(#d)" stroke="#fff" stroke-width=".154"/>
  <path d="m161.49 1019.7c3.8908 15.685 4.0057 21.366 11.672 47.055-19.294 5.4461-39.162 8.1525-52.192 11.069l-9.3398-52.916c19.119-0.4932 32.05-2.0463 49.86-5.2083z" fill="url(#a)"/>
  <path d="m161.49 1019.7c3.8908 15.685 4.0057 21.366 11.672 47.055-19.294 5.4461-39.162 8.1525-52.192 11.069l-9.3398-52.916c19.119-0.4932 32.05-2.0463 49.86-5.2083z" fill="url(#b)"/>
  <g fill="#f00">
   <g transform="translate(-28.284 74.953)">
    <path transform="translate(42 870.74)" d="m123.9458,84.4918c-1.7862.092-3.3777-.5853-3.5549-1.5127s1.1272-1.7538 2.9133-1.8458 3.3777.5853 3.5549,1.5127c.1752.9173-1.0995,1.7378-2.8632,1.843" fill="#4d4d4d" filter="url(#e)"/>
    <path d="m165.4688,947.6122c-1.1173.0675-1.9233.6636-1.8125,1.3438 .007.0425.0176.084.0312.125 .0004.0326-.0009.0262 0,.0625 .004.1817.006.3883.0312.5313 .0294.1668.1309.3326.1563.5 .0328.2163 0,.6563 0,.6563l-.2813.3438c-.9412.3492-1.4991.9369-1.375,1.5625 .1879.9473 1.8555,1.6252 3.75,1.5313h.0625c1.8706-.1075 3.2171-.9381 3.0313-1.875-.0908-.4576-.5423-.8464-1.1875-1.125l-.375-.375c0,0-.1108-.5452-.0625-.8125 .0238-.1316.1244-.2451.1563-.375 .0388-.1582.0607-.3893.0625-.5938 .0002-.017-3e-005-.0148 0-.0312 .0393-.1181.0518-.2176.0312-.3438-.1108-.6801-1.1015-1.1925-2.2188-1.125z" fill="#f00"/>
    <path d="m165.8717,950.2307c-1.4076.0851-2.6618-.5407-2.8015-1.3975s.8883-1.6203 2.2959-1.7053c1.4076-.0851 2.6618.5407 2.8015,1.3975 .1381.8474-.8665,1.6055-2.2563,1.7027" fill="#ff8080"/>
    <path transform="matrix(1.85 0 0 1.85 -65.45 803.85)" d="m125.7197,78.9696 .0616.5148 .9151,1.1689c-.2837.3719-.7111.5255-1.0565.5804l-.6086-1.265-.0572-.8369c.2624-.008.515-.0747.7456-.1623z" fill="#ccc" filter="url(#f)" opacity=".56"/>
    <path d="m165.8348,950.1897c-1.3644.0824-2.5802-.5241-2.7156-1.3547s.861-1.5706 2.2255-1.653 2.5802.5241 2.7156,1.3547c.1339.8215-.8399,1.5563-2.1872,1.6505" fill="url(#c)" opacity=".62"/>
   </g>
  </g>
 </g>
</svg>
